HIERARCHY
ROOT pelvis
{
  OFFSET 0 100 0
  CHANNELS 6 Xposition Yposition Zposition Zrotation Xrotation Yrotation
  JOINT pelvis_right_femur
  {
    OFFSET -10.78128 -3.44521 -0.5502486
    CHANNELS 3 Zrotation Xrotation Yrotation
    JOINT right_femur_tibia
    {
      OFFSET -0.8047443 -44.0398 -0.1307829
      CHANNELS 3 Zrotation Xrotation Yrotation
      JOINT right_tibia_foot
      {
        OFFSET 3.006224 -47.83518 -5
        CHANNELS 3 Zrotation Xrotation Yrotation
        End Site
        {
          OFFSET 0 -5 15
        }
      }
    }
  }
  JOINT pelvis_left_femur
  {
    OFFSET 10.78128 -3.44521 -0.5502486
    CHANNELS 3 Zrotation Xrotation Yrotation
    JOINT left_femur_tibia
    {
      OFFSET 0.8047443 -44.0398 -0.1307829
      CHANNELS 3 Zrotation Xrotation Yrotation
      JOINT left_tibia_foot
      {
        OFFSET -4.370144 -48.10324 -4.275266
        CHANNELS 3 Zrotation Xrotation Yrotation
        End Site
        {
          OFFSET 0 -5 15
        }
      }
    }
  }
  JOINT pelvis_spine1
  {
    OFFSET 0 6.468898 -3.129235
    CHANNELS 3 Zrotation Xrotation Yrotation
    JOINT spine1
    {
      OFFSET 0 23.15396 4.99043
      CHANNELS 3 Zrotation Xrotation Yrotation
      JOINT spine2
      {
        OFFSET 0 20.79997 -5.064912
        CHANNELS 3 Zrotation Xrotation Yrotation
        JOINT neck
        {
          OFFSET 0 14.38658 9.616178
          CHANNELS 3 Zrotation Xrotation Yrotation
          End Site
          {
            OFFSET 0 20 0
          }
        }
      }
      JOINT right_manubrium
      {
        OFFSET -5.722621 16.35077 3.967754
        CHANNELS 3 Zrotation Xrotation Yrotation
        JOINT right_clavicle
        {
          OFFSET -13.16364 1.694482 -4.693211
          CHANNELS 3 Zrotation Xrotation Yrotation
          JOINT right_humerus
          {
            OFFSET -28.5034 -0.3100689 -2.792744
            CHANNELS 3 Zrotation Xrotation Yrotation
            JOINT right_radius
            {
              OFFSET -25.15693 0.02248979 -1.271978
              CHANNELS 3 Zrotation Xrotation Yrotation
              End Site
              {
                OFFSET -15 0 0
              }
            }
          }
        }
      }
      JOINT left_manubrium
      {
        OFFSET 5.722621 16.35077 3.967754
        CHANNELS 3 Zrotation Xrotation Yrotation
        JOINT left_clavicle
        {
          OFFSET 13.16364 1.694482 -4.693211
          CHANNELS 3 Zrotation Xrotation Yrotation
          JOINT left_humerus
          {
            OFFSET 29.39168 -1.063119 -2.237045
            CHANNELS 3 Zrotation Xrotation Yrotation
            JOINT left_radius
            {
              OFFSET 24.59957 -0.9528479 0.9047498
              CHANNELS 3 Zrotation Xrotation Yrotation
              End Site
              {
                OFFSET 15 -0 -0
              }
            }
          }
        }
      }
    }
  }
}
MOTION
Frames: 19
Frame Time: 0.0416666666667
0 103.5113 0 0.8014355 -0.7729711 0.1439265 3.272096 -15.2558 8.148428 -0 36.90615 -0 -6.243021 -15.16658 -2.446526 -7.204595 4.835545 -22.36136 -0 3.324892 -0 7.555173 -17.9272 26.29857 -1.710594 -2.330495 4.537813 2.874205 9.662528 -7.628704 0.6966316 21.5148 7.036085 4.138423 -26.79063 8.255612 5.150551 -20.10915 11.37598 86.40667 36.85645 -18.82155 -0 0 13.56398 -6.048907 6.244867 5.025182 6.220418 -21.73278 -1.336969 -95.42133 25.64996 25.08831 0 0 -16.17288 10.39831 17.24322 2.678285
0.4601218 103.3344 1.134869 0.8202844 -0.7301645 0.2971469 3.424766 -16.71079 8.550045 -0 38.49274 -0 -6.202576 -14.84633 -2.717464 -7.375261 6.449484 -22.90208 -0 4.755057 -0 7.666937 -18.15607 26.39277 -1.747121 -2.324749 4.541252 2.892392 9.520959 -7.561473 0.7138913 21.56767 7.052332 4.14934 -26.92844 8.332355 5.25903 -20.11092 11.32007 86.14208 37.11452 -18.57687 -0 0 13.68319 -5.647516 6.035075 4.956664 6.219216 -21.53218 -1.16376 -95.83572 26.02791 25.47708 0 0 -15.76784 10.26917 17.41565 2.912233
0.8289676 103.1228 2.682983 0.7151327 -0.8015712 0.5350276 3.540692 -19.91991 7.78707 -0 37.00911 -0 -6.116337 -12.76381 -3.098684 -7.094276 9.602221 -22.08632 -0 5.666467 -0 6.834352 -18.99279 25.12108 -1.738566 -2.223143 4.40532 2.846097 9.613129 -7.781863 0.7254126 21.45707 7.13776 4.111991 -26.38946 8.323747 5.223277 -19.55499 11.34453 86.84853 36.81817 -19.60717 -0 0 13.00171 -6.719374 6.940424 5.040432 6.29714 -21.88165 -1.456634 -94.43673 25.94307 23.63647 0 0 -17.5064 9.771954 16.72593 3.39458
1.138273 102.8031 4.433132 0.5937991 -0.6506495 0.7850952 3.733499 -22.00582 7.262822 -0 34.5894 -0 -6.279351 -12.02333 -3.217803 -6.838219 11.26492 -21.58831 -0 5.637542 -0 6.513666 -19.51974 24.39309 -1.745851 -2.174144 4.312326 2.843072 9.609953 -7.891586 0.7365889 21.42263 7.189526 4.099633 -26.18351 8.351393 5.239308 -19.24773 11.33401 87.17844 36.75484 -20.12774 -0 0 12.62095 -7.075089 7.298945 5.029221 6.34889 -22.02563 -1.551748 -93.82453 26.01957 22.74684 0 0 -18.32172 9.538293 16.45524 3.643752
1.372179 102.2687 6.556874 0.4096911 -0.4921877 1.056616 3.911835 -24.64017 6.315388 -0 30.59151 -0 -6.494792 -10.87019 -3.330322 -6.431797 13.29001 -20.61027 -0 5.338019 -0 5.892566 -20.2079 23.19309 -1.755735 -2.114349 4.178218 2.848683 9.600101 -8.041951 0.7511144 21.383 7.257668 4.085898 -25.93874 8.392763 5.261385 -18.84054 11.31624 87.62854 36.67976 -20.83256 -0 0 12.09278 -7.482104 7.730029 4.993789 6.422515 -22.2242 -1.6705 -93.0319 26.1183 21.57018 0 0 -19.39032 9.276063 16.12953 3.921157
1.539011 101.509 9.090287 0.2285692 -0.3874788 1.349668 4.013917 -27.01113 5.303137 -0 26.52354 -0 -6.681909 -9.672015 -3.42358 -6.042624 15.10215 -19.52294 -0 5.098311 -0 5.168881 -20.809 21.92533 -1.765755 -2.067125 4.046113 2.865578 9.581558 -8.180814 0.7638711 21.35537 7.318624 4.07725 -25.75694 8.436897 5.285481 -18.47731 11.29492 88.03966 36.63144 -21.47503 -0 0 11.59686 -7.759847 8.059096 4.934162 6.494308 -22.40623 -1.763734 -92.35527 26.21595 20.53289 0 0 -20.32194 9.093254 15.88213 4.11376
1.642238 100.5167 12.17677 0.0482556 -0.4304384 1.678038 3.983378 -29.30215 4.053232 -0 22.29893 -0 -6.768069 -8.002705 -3.557998 -5.653155 16.98441 -18.08318 -0 5.249025 -0 4.089079 -21.34124 20.32387 -1.777792 -2.019058 3.899496 2.889106 9.554002 -8.329598 0.7779099 21.33057 7.384196 4.069653 -25.58159 8.489047 5.315693 -18.08894 11.26824 88.47771 36.59151 -22.16179 -0 0 11.05868 -8.009983 8.381958 4.856854 6.573617 -22.59809 -1.853654 -91.65461 26.32808 19.43596 0 0 -21.29862 8.91719 15.64023 4.301209
1.696971 99.32802 15.92981 -0.1035841 -0.6735165 2.047993 3.814808 -31.09004 2.683268 -0 18.41921 -0 -6.71404 -5.984121 -3.737253 -5.313966 18.62667 -16.3562 -0 6.100498 -0 2.680956 -21.63941 18.5061 -1.789364 -1.973966 3.757183 2.913355 9.525886 -8.472263 0.7914639 21.30851 7.446687 4.062703 -25.41988 8.540087 5.344907 -17.71779 11.24156 88.89844 36.55216 -22.81924 -0 0 10.54011 -8.234716 8.681071 4.779198 6.650232 -22.78208 -1.937399 -90.99063 26.42819 18.38682 0 0 -22.22748 8.758133 15.41611 4.470427
1.722542 98.02334 20.4588 -0.2098077 -1.173649 2.456511 3.558796 -32.11083 1.291676 -0 15.14747 -0 -6.491091 -3.661954 -3.991189 -5.038332 19.8513 -14.33571 -0 8.180281 -0 0.9217883 -21.54001 16.51128 -1.801193 -1.928622 3.62148 2.934768 9.496321 -8.607385 0.8053898 21.28763 7.507425 4.055133 -25.25949 8.590358 5.374828 -17.35783 11.21473 89.29788 36.51219 -23.4459 -0 0 10.04507 -8.457968 8.975704 4.70897 6.723093 -22.95364 -2.016168 -90.35254 26.52284 17.37339 0 0 -23.11989 8.59178 15.1946 4.65024
1.740751 96.74641 25.79684 -0.2511383 -1.938135 2.87903 3.362062 -32.00871 0.1449854 -0 12.84736 -0 -6.115974 -1.353971 -4.330476 -4.823244 20.33118 -12.18136 -0 12.05925 -0 -1.043299 -20.84356 14.56349 -1.810718 -1.884388 3.504502 2.947846 9.475147 -8.726819 0.8184046 21.2657 7.561424 4.045832 -25.09559 8.631739 5.397347 -17.0329 11.19295 89.65565 36.45733 -24.00338 -0 0 9.608571 -8.703869 9.268584 4.662843 6.785474 -23.1072 -2.094872 -89.76103 26.58549 16.44562 0 0 -23.9363 8.420829 14.97214 4.833922
1.765798 95.70096 31.87008 -0.2193895 -2.93615 3.263898 3.413741 -30.53465 -0.4466714 -0 11.77284 -0 -5.643957 0.5260538 -4.754786 -4.629083 19.78002 -10.12066 -0 18.33245 -0 -3.002619 -19.38724 12.93973 -1.81367 -1.84038 3.431084 2.938482 9.480452 -8.813959 0.8290702 21.23702 7.600445 4.031238 -24.90556 8.649095 5.39792 -16.78131 11.18591 89.93041 36.35703 -24.41845 -0 0 9.299299 -9.044514 9.585047 4.681493 6.823566 -23.22845 -2.184898 -89.2427 26.56962 15.68257 0 0 -24.61569 8.226492 14.72562 5.036689
1.794576 95.11895 38.46497 -0.1243656 -4.074235 3.531239 3.850291 -27.56581 -0.2252954 -0 12.00174 -0 -5.182422 1.466338 -5.219797 -4.396241 17.95161 -8.449665 -0 27.24244 -0 -4.676957 -17.11746 11.95598 -1.803773 -1.794023 3.460811 2.874981 9.540465 -8.822404 0.8355946 21.19332 7.606771 4.004197 -24.65047 8.614438 5.353945 -16.69456 11.21069 89.99916 36.16766 -24.49477 -0 0 9.293336 -9.609106 9.962806 4.853671 6.804853 -23.26245 -2.294981 -88.89882 26.40872 15.31005 0 0 -24.97095 7.951449 14.41726 5.318697
1.802984 95.18427 45.24585 -0.002167951 -5.201645 3.581518 4.651676 -23.13939 0.8459704 -0 13.21921 -0 -4.88012 1.002887 -5.620536 -4.067273 14.67898 -7.403328 -0 38.26083 -0 -5.818226 -14.15173 11.83642 -1.778928 -1.738752 3.676046 2.714709 9.670148 -8.678238 0.8386388 21.13038 7.56024 3.956337 -24.29127 8.502529 5.254066 -16.89197 11.28077 89.66142 35.8703 -23.93737 -0 0 9.848874 -10.5261 10.42993 5.293223 6.685804 -23.10083 -2.409996 -88.91131 26.08443 15.67609 0 0 -24.69575 7.484279 14.00978 5.815439
1.75903 95.92686 51.84047 0.08833188 -6.126856 3.319383 5.617758 -17.49547 2.47978 -0 14.57063 -0 -4.883757 -1.086372 -5.800208 -3.602499 9.932439 -7.017004 -0 49.6445 -0 -6.288438 -10.82701 12.59276 -1.745301 -1.669433 4.107208 2.443003 9.849105 -8.342914 0.8416887 21.05501 7.457299 3.886708 -23.83144 8.318302 5.114379 -17.41249 11.39008 88.81809 35.49162 -22.61423 -0 0 11.07802 -11.78778 10.9617 6.034145 6.45221 -22.66908 -2.494223 -89.39404 25.66054 16.94855 0 0 -23.62032 6.757272 13.50481 6.624331
1.653184 97.15451 57.99643 0.09714982 -6.695334 2.699331 6.446057 -11.15183 4.101196 -0 14.96774 -0 -5.22081 -4.473921 -5.628572 -2.985518 4.002825 -7.031524 -0 58.59551 -0 -6.139301 -7.682119 13.9397 -1.71195 -1.58854 4.672672 2.101517 10.03664 -7.878047 0.8477964 20.97954 7.321705 3.805349 -23.32183 8.100939 4.964827 -18.13022 11.51408 87.65072 35.07109 -20.79901 -0 0 12.74035 -13.22504 11.49748 6.961387 6.148926 -22.04039 -2.533908 -90.20778 25.2179 18.81163 0 0 -21.99805 5.851218 12.94482 7.662087
1.523218 98.50617 63.7163 0.02940428 -6.89801 1.773898 6.872461 -4.828351 5.095817 -0 13.93135 -0 -5.703869 -8.172789 -5.086839 -2.219837 -2.388316 -6.994441 -0 62.42204 -0 -5.61601 -5.301625 15.38652 -1.68229 -1.503709 5.243687 1.754003 10.20913 -7.397694 0.8570776 20.91102 7.184631 3.724341 -22.81383 7.890167 4.820029 -18.85429 11.63081 86.48027 34.6279 -18.95689 -0 0 14.43092 -14.65821 11.99834 7.90719 5.843551 -21.38248 -2.555293 -91.05735 24.78746 20.70814 0 0 -20.31528 4.93179 12.37552 8.726442
1.438769 99.60703 69.21716 -0.06148469 -6.861314 0.6806379 6.816361 0.8921671 5.178479 -0 11.92673 -0 -6.065762 -11.13719 -4.25419 -1.32147 -8.4284 -6.574878 -0 60.16588 -0 -4.994032 -4.012167 16.54526 -1.655493 -1.419563 5.755007 1.432406 10.36401 -6.963163 0.8686859 20.85054 7.060265 3.648665 -22.32709 7.701117 4.679388 -19.48993 11.73265 85.47291 34.17013 -17.32865 -0 0 15.93912 -16.01461 12.4587 8.789011 5.569537 -20.79137 -2.583111 -91.77513 24.37289 22.34557 0 0 -18.83614 4.09 11.81883 9.700075
1.459555 100.1946 74.7356 -0.1305409 -6.706472 -0.437649 6.404449 5.832172 4.527648 -0 9.692364 -0 -6.202203 -13.05642 -3.243581 -0.3324069 -13.7253 -5.78413 -0 53.03523 -0 -4.387551 -3.710092 17.35841 -1.630848 -1.336161 6.223629 1.129422 10.50498 -6.55951 0.8823194 20.79751 6.944018 3.576832 -21.85866 7.528103 4.540445 -20.06515 11.82275 84.58293 33.70117 -15.84965 -0 0 17.31942 -17.30928 12.8803 9.624787 5.317754 -20.24543 -2.613668 -92.40564 23.97238 23.80646 0 0 -17.49045 3.308783 11.2755 10.60358
1.615732 100.1509 80.39589 -0.1611408 -6.496773 -1.488302 5.826331 10.08645 3.541726 -0 7.768173 -0 -6.165699 -14.22942 -2.173562 0.6620891 -18.2788 -4.854947 -0 43.25842 -0 -3.782657 -4.041437 17.97957 -1.608508 -1.25179 6.694825 0.8242359 10.63497 -6.144828 0.8980319 20.7512 6.825439 3.505648 -21.39929 7.359704 4.402721 -20.64931 11.90704 83.69616 33.21704 -14.35228 -0 0 18.71854 -18.58356 13.26237 10.46651 5.064687 -19.68005 -2.62985 -93.07086 23.57806 25.30143 0 0 -16.08985 2.533028 10.73627 11.50841
